<?xml version="1.0" standalone="no"?>
<!DOCTYPE svg PUBLIC "-//W3C//DTD SVG 20010904//EN"
 "http://www.w3.org/TR/2001/REC-SVG-20010904/DTD/svg10.dtd">
<svg version="1.0" xmlns="http://www.w3.org/2000/svg"
 width="100.000000pt" height="100.000000pt" viewBox="0 0 100.000000 100.000000"
 preserveAspectRatio="xMidYMid meet">
<metadata>
Created by potrace 1.14, written by Peter Selinger 2001-2017
</metadata>
<g transform="translate(0.000000,100.000000) scale(0.100000,-0.100000)"
fill="#000000" stroke="none">
<path d="M20 920 c-13 -13 -20 -33 -20 -60 l0 -40 500 0 500 0 0 40 c0 27 -7
47 -20 60 -19 19 -33 20 -480 20 -447 0 -461 -1 -480 -20z"/>
<path d="M0 420 l0 -360 500 0 500 0 0 360 0 360 -500 0 -500 0 0 -360z m595
267 c5 -13 -168 -444 -185 -461 -7 -7 -14 -6 -21 1 -9 9 4 50 50 165 35 84 66
162 71 173 49 120 73 155 85 122z m-260 -117 c10 -16 -9 -34 -60 -60 -25 -13
-45 -26 -45 -29 0 -4 25 -21 55 -39 56 -33 66 -48 41 -58 -12 -5 -107 45 -151
80 l-20 16 20 16 c34 26 129 82 142 83 6 1 15 -4 18 -9z m425 -32 c41 -24 75
-50 75 -58 0 -18 -143 -103 -162 -96 -24 10 -9 29 45 61 29 16 52 32 52 35 0
3 -15 13 -32 23 -54 29 -81 54 -74 66 10 16 14 15 96 -31z"/>
</g>
</svg>
